HIERARCHY
ROOT Hips
{
	OFFSET	0.000000	0.000000	0.000000
	CHANNELS	6	Xposition	Yposition	Zposition	Zrotation	Xrotation	Yrotation
	JOINT LeftHip
	{
		OFFSET	15.500000	-8.200000	0.000000
		CHANNELS	3	Zrotation	Xrotation	Yrotation
		JOINT LeftKnee
		{
			OFFSET	0.000000	-41.000000	0.000000
			CHANNELS	3	Zrotation	Xrotation	Yrotation
			JOINT LeftAnkle
			{
				OFFSET	0.000000	-41.500000	0.000000
				CHANNELS	3	Zrotation	Xrotation	Yrotation
				End Site
				{
					OFFSET	0.000000	0.000000	22.875000
				}
			}
		}
	}
	JOINT RightHip
	{
		OFFSET	-15.500000	-8.200000	0.000000
		CHANNELS	3	Zrotation	Xrotation	Yrotation
		JOINT RightKnee
		{
			OFFSET	0.000000	-41.000000	0.000000
			CHANNELS	3	Zrotation	Xrotation	Yrotation
			JOINT RightAnkle
			{
				OFFSET	0.000000	-41.500000	0.000000
				CHANNELS	3	Zrotation	Xrotation	Yrotation
				End Site
				{
					OFFSET	0.000000	0.000000	22.875000
				}
			}
		}
	}
	JOINT Chest
	{
		OFFSET	0.000000	16.666667	0.000000
		CHANNELS	3	Zrotation	Xrotation	Yrotation
		JOINT LeftCollar
		{
			OFFSET	4.625000	33.333333	1.541667
			CHANNELS	3	Zrotation	Xrotation	Yrotation
			JOINT LeftShoulder
			{
				OFFSET	13.875000	0.000000	0.000000
				CHANNELS	3	Zrotation	Xrotation	Yrotation
				JOINT LeftElbow
				{
					OFFSET	0.000000	-28.000000	0.000000
					CHANNELS	3	Zrotation	Xrotation	Yrotation
					JOINT LeftWrist
					{
						OFFSET	0.000000	-25.000000	0.000000
						CHANNELS	3	Zrotation	Xrotation	Yrotation
						End Site
						{
							OFFSET	0.000000	-7.500000	0.000000
						}
					}
				}
			}
		}
		JOINT RightCollar
		{
			OFFSET	-4.625000	33.333333	1.541667
			CHANNELS	3	Zrotation	Xrotation	Yrotation
			JOINT RightShoulder
			{
				OFFSET	-13.875000	0.000000	0.000000
				CHANNELS	3	Zrotation	Xrotation	Yrotation
				JOINT RightElbow
				{
					OFFSET	0.000000	-28.000000	0.000000
					CHANNELS	3	Zrotation	Xrotation	Yrotation
					JOINT RightWrist
					{
						OFFSET	0.000000	-25.000000	0.000000
						CHANNELS	3	Zrotation	Xrotation	Yrotation
						End Site
						{
							OFFSET	0.000000	-7.500000	0.000000
						}
					}
				}
			}
		}
		JOINT Neck
		{
			OFFSET	0.000000	33.333333	0.000000
			CHANNELS	3	Zrotation	Xrotation	Yrotation
			JOINT Head
			{
				OFFSET	0.000000	12.000000	0.000000
				CHANNELS	3	Zrotation	Xrotation	Yrotation
				End Site
				{
					OFFSET	0.000000	15.000000	0.000000
				}
			}
		}
	}
}
MOTION
Frames:	15
Frame Time:	0.012000
-61.86	103.99	-43.30	-1.87	-0.43	105.22	4.73	-17.58	-13.27	-5.87	12.23	4.92	3.88	24.49	-0.06	-2.39	-6.11	4.83	4.69	9.64	-3.06	-9.03	28.81	9.54	0.36	-0.89	-1.14	0.00	0.00	0.00	5.04	-17.26	26.05	-11.44	-1.51	6.48	-0.11	-0.91	0.00	0.00	0.00	0.00	-3.73	-30.94	-33.06	0.55	5.00	9.20	3.57	1.72	0.00	0.00	0.00	0.00	-0.88	4.75	-6.62
-61.91	104.00	-43.24	-2.07	-0.42	105.70	4.88	-18.09	-13.34	-6.08	12.68	4.92	3.71	24.47	0.03	-2.39	-6.28	4.70	4.64	9.73	-3.07	-9.17	28.81	9.60	0.34	-0.84	-1.19	0.00	0.00	0.00	5.06	-17.29	26.10	-11.65	-1.46	6.42	-0.18	-0.94	0.00	0.00	0.00	0.00	-3.84	-30.93	-32.99	0.58	5.04	9.20	3.54	1.73	0.00	0.00	0.00	0.00	-0.86	4.62	-6.67
-61.91	104.00	-43.24	-2.07	-0.42	105.70	5.03	-18.64	-13.38	-6.29	13.15	4.93	3.56	24.52	0.10	-2.35	-6.48	4.45	4.52	9.93	-3.07	-9.35	28.78	9.74	0.34	-0.80	-1.24	0.00	0.00	0.00	5.13	-17.39	26.16	-11.89	-1.30	6.36	-0.23	-0.96	0.00	0.00	0.00	0.00	-3.92	-30.95	-32.95	0.58	5.06	9.19	3.53	1.73	0.00	0.00	0.00	0.00	-0.86	4.57	-6.62
-62.07	104.04	-43.20	-2.20	-0.41	106.02	5.20	-19.24	-13.44	-6.51	13.61	4.94	3.42	24.56	0.13	-2.31	-6.68	4.23	4.41	10.03	-3.07	-9.56	28.86	9.84	0.31	-0.75	-1.27	0.00	0.00	0.00	5.12	-17.46	26.21	-12.05	-1.31	6.26	-0.29	-0.99	0.00	0.00	0.00	0.00	-4.03	-30.92	-32.93	0.64	5.06	9.18	3.52	1.74	0.00	0.00	0.00	0.00	-0.82	4.60	-6.29
-62.15	104.06	-43.14	-2.46	-0.40	106.69	5.38	-19.85	-13.50	-6.74	14.06	4.95	3.28	24.65	0.14	-2.26	-6.90	3.97	4.27	10.15	-3.07	-9.81	29.00	9.99	0.29	-0.69	-1.30	0.00	0.00	0.00	5.12	-17.55	26.25	-12.24	-1.27	6.20	-0.35	-1.02	0.00	0.00	0.00	0.00	-4.17	-30.90	-32.96	0.71	5.07	9.16	3.51	1.72	0.00	0.00	0.00	0.00	-0.81	4.44	-6.52
-62.08	104.10	-42.94	-2.67	-0.40	107.26	5.57	-20.49	-13.59	-6.97	14.51	4.96	3.18	24.85	0.16	-2.20	-7.12	3.67	4.10	10.25	-3.07	-10.10	29.11	10.21	0.26	-0.64	-1.33	0.00	0.00	0.00	5.14	-17.65	26.31	-12.42	-1.25	6.10	-0.41	-1.05	0.00	0.00	0.00	0.00	-4.31	-30.88	-33.02	0.77	5.04	9.19	3.51	1.71	0.00	0.00	0.00	0.00	-0.79	4.43	-6.30
-62.09	104.15	-42.81	-2.90	-0.40	107.90	5.77	-21.14	-13.72	-7.21	14.90	4.96	3.03	24.95	0.13	-2.13	-7.34	3.32	3.88	10.38	-3.07	-10.45	29.24	10.51	0.23	-0.60	-1.33	0.00	0.00	0.00	5.19	-17.82	26.41	-12.57	-1.23	6.03	-0.47	-1.07	0.00	0.00	0.00	0.00	-4.46	-30.87	-33.10	0.87	5.04	9.18	3.49	1.69	0.00	0.00	0.00	0.00	-0.75	4.40	-6.31
-62.07	104.21	-42.71	-3.15	-0.39	108.61	5.97	-21.82	-13.83	-7.45	15.27	4.97	2.87	25.13	0.09	-2.11	-7.62	3.11	3.74	10.36	-3.07	-10.88	29.26	10.85	0.18	-0.54	-1.33	0.00	0.00	0.00	5.16	-17.97	26.42	-12.71	-1.20	5.94	-0.54	-1.09	0.00	0.00	0.00	0.00	-4.65	-30.86	-33.19	0.99	5.02	9.18	3.49	1.69	0.00	0.00	0.00	0.00	-0.72	4.22	-6.70
-62.28	104.29	-42.48	-3.40	-0.39	109.38	6.18	-22.50	-13.98	-7.67	15.55	4.97	2.70	25.28	0.05	-2.03	-7.87	2.74	3.49	10.47	-3.08	-11.40	29.32	11.29	0.15	-0.51	-1.32	0.00	0.00	0.00	5.12	-18.13	26.41	-12.85	-1.17	5.86	-0.61	-1.11	0.00	0.00	0.00	0.00	-4.81	-30.87	-33.27	1.09	5.01	9.18	3.48	1.68	0.00	0.00	0.00	0.00	-0.68	4.31	-6.58
-62.32	104.36	-42.35	-3.67	-0.38	110.24	6.39	-23.17	-14.12	-7.89	15.79	4.98	2.51	25.47	0.01	-1.94	-8.13	2.35	3.21	10.56	-3.08	-11.93	29.32	11.71	0.10	-0.48	-1.30	0.00	0.00	0.00	5.10	-18.31	26.41	-12.99	-1.11	5.79	-0.68	-1.13	0.00	0.00	0.00	0.00	-5.00	-30.89	-33.36	1.20	5.04	9.17	3.46	1.68	0.00	0.00	0.00	0.00	-0.64	4.39	-6.55
-62.39	104.44	-42.17	-3.96	-0.39	111.17	6.61	-23.83	-14.27	-8.10	15.97	4.98	2.31	25.68	0.00	-1.85	-8.37	1.94	2.91	10.66	-3.08	-12.51	29.47	12.23	0.05	-0.45	-1.27	0.00	0.00	0.00	5.09	-18.51	26.39	-13.11	-1.04	5.62	-0.75	-1.15	0.00	0.00	0.00	0.00	-5.18	-30.92	-33.43	1.31	5.07	9.15	3.43	1.67	0.00	0.00	0.00	0.00	-0.58	4.46	-6.61
-62.39	104.53	-42.00	-4.24	-0.39	112.17	6.84	-24.48	-14.43	-8.30	16.10	4.98	2.09	25.95	0.07	-1.76	-8.62	1.52	2.61	10.76	-3.08	-13.06	29.56	12.70	0.00	-0.43	-1.24	0.00	0.00	0.00	5.05	-18.73	26.37	-13.22	-1.00	5.46	-0.82	-1.16	0.00	0.00	0.00	0.00	-5.37	-30.98	-33.49	1.41	5.11	9.14	3.41	1.68	0.00	0.00	0.00	0.00	-0.54	4.45	-6.94
-62.41	104.63	-41.76	-4.44	-0.39	112.86	7.08	-25.12	-14.55	-8.49	16.21	4.98	1.87	26.20	0.11	-1.67	-8.87	1.08	2.27	10.84	-3.08	-13.63	29.69	13.19	-0.06	-0.42	-1.20	0.00	0.00	0.00	5.01	-18.96	26.33	-13.31	-0.94	5.25	-0.90	-1.18	0.00	0.00	0.00	0.00	-5.56	-31.04	-33.54	1.52	5.17	9.14	3.37	1.69	0.00	0.00	0.00	0.00	-0.48	4.57	-6.92
-62.57	104.74	-41.72	-4.62	-0.38	113.59	7.32	-25.72	-14.65	-8.66	16.27	4.98	1.67	26.38	0.08	-1.57	-9.11	0.63	1.91	10.89	-3.08	-14.19	29.69	13.62	-0.11	-0.41	-1.17	0.00	0.00	0.00	5.00	-19.15	26.30	-13.44	-0.95	5.07	-0.96	-1.20	0.00	0.00	0.00	0.00	-5.73	-31.09	-33.55	1.61	5.21	9.13	3.32	1.71	0.00	0.00	0.00	0.00	-0.44	5.01	-6.10
-62.81	104.85	-41.64	-4.80	-0.38	114.36	7.55	-26.29	-14.71	-8.81	16.31	4.98	1.60	26.51	-0.04	-1.48	-9.35	0.17	1.53	10.93	-3.08	-14.73	29.68	14.04	-0.18	-0.43	-1.12	0.00	0.00	0.00	4.93	-19.37	26.28	-13.51	-0.96	4.83	-1.02	-1.22	0.00	0.00	0.00	0.00	-5.92	-31.16	-33.54	1.72	5.28	9.13	3.27	1.72	0.00	0.00	0.00	0.00	-0.37	5.35	-5.68
